<svg width="27" height="28" viewBox="0 0 27 28" fill="none" xmlns="http://www.w3.org/2000/svg">
<path d="M23.6936 24.2832H3.30645C1.48184 24.2832 0 22.8014 0 20.9768V7.02324C0 5.19863 1.48184 3.7168 3.30645 3.7168H23.6936C25.5182 3.7168 27 5.19863 27 7.02324V20.9768C27 22.8014 25.5182 24.2832 23.6936 24.2832ZM3.30645 4.43398C1.87734 4.43398 0.717188 5.59414 0.717188 7.02324V20.9768C0.717188 22.4059 1.87734 23.566 3.30645 23.566H23.6936C25.1227 23.566 26.2828 22.4059 26.2828 20.9768V7.02324C26.2828 5.59414 25.1227 4.43398 23.6936 4.43398H3.30645Z" fill="#231F20"/>
<path d="M5 8H22" stroke="black" stroke-width="0.945905" stroke-linecap="round"/>
</svg>
