<svg width="27" height="28" viewBox="0 0 27 28" fill="none" xmlns="http://www.w3.org/2000/svg">
<path fill-rule="evenodd" clip-rule="evenodd" d="M4.5 6.6875C3.56802 6.6875 2.8125 7.44302 2.8125 8.375V22.0893C2.8125 23.0213 3.56802 23.7768 4.5 23.7768H22.5C23.4319 23.7768 24.1875 23.0213 24.1875 22.0893V12.9821C24.1875 12.0501 23.4319 11.2947 22.5 11.2947H14.6409C13.7445 11.2947 12.9017 10.8673 12.3721 10.1442L10.3454 7.37777C10.0276 6.94389 9.52197 6.6875 8.98413 6.6875H4.5ZM1.6875 8.375C1.6875 6.8217 2.9467 5.5625 4.5 5.5625H8.98413C9.88053 5.5625 10.7232 5.9898 11.2529 6.71294L13.2796 9.47939C13.5974 9.91327 14.103 10.1697 14.6409 10.1697H22.5C24.0533 10.1697 25.3125 11.4288 25.3125 12.9821V22.0893C25.3125 23.6426 24.0533 24.9018 22.5 24.9018H4.5C2.9467 24.9018 1.6875 23.6426 1.6875 22.0893V8.375Z" fill="black"/>
<path fill-rule="evenodd" clip-rule="evenodd" d="M3.375 2.1875H10.6716C11.568 2.1875 12.4108 2.6148 12.9404 3.33794L14.9671 6.10439C15.2849 6.53827 15.7905 6.79466 16.3284 6.79466H24.75V7.91966H16.3284C15.432 7.91966 14.5892 7.49235 14.0596 6.76922L12.0329 4.00277C11.7151 3.56889 11.2095 3.3125 10.6716 3.3125H3.375V2.1875Z" fill="black"/>
</svg>
