<svg width="27" height="28" viewBox="0 0 27 28" fill="none" xmlns="http://www.w3.org/2000/svg">
<path d="M9.5625 3.875H6.1875C5.44158 3.875 4.72621 4.17132 4.19876 4.69876C3.67132 5.22621 3.375 5.94158 3.375 6.6875C3.375 7.43342 3.67132 8.14879 4.19876 8.67624C4.72621 9.20368 5.44158 9.5 6.1875 9.5H9.5625C10.3084 9.5 11.0238 9.20368 11.5512 8.67624C12.0787 8.14879 12.375 7.43342 12.375 6.6875C12.375 5.94158 12.0787 5.22621 11.5512 4.69876C11.0238 4.17132 10.3084 3.875 9.5625 3.875ZM9.5625 8.375H6.1875C5.73995 8.375 5.31072 8.19721 4.99426 7.88074C4.67779 7.56428 4.5 7.13505 4.5 6.6875C4.5 6.23995 4.67779 5.81072 4.99426 5.49426C5.31072 5.17779 5.73995 5 6.1875 5H9.5625C10.0101 5 10.4393 5.17779 10.7557 5.49426C11.0722 5.81072 11.25 6.23995 11.25 6.6875C11.25 7.13505 11.0722 7.56428 10.7557 7.88074C10.4393 8.19721 10.0101 8.375 9.5625 8.375ZM9.5625 11.75H6.1875C5.44158 11.75 4.72621 12.0463 4.19876 12.5738C3.67132 13.1012 3.375 13.8166 3.375 14.5625V21.3125C3.375 22.0584 3.67132 22.7738 4.19876 23.3012C4.72621 23.8287 5.44158 24.125 6.1875 24.125H9.5625C10.3084 24.125 11.0238 23.8287 11.5512 23.3012C12.0787 22.7738 12.375 22.0584 12.375 21.3125V14.5625C12.375 13.8166 12.0787 13.1012 11.5512 12.5738C11.0238 12.0463 10.3084 11.75 9.5625 11.75ZM11.25 21.3125C11.25 21.7601 11.0722 22.1893 10.7557 22.5057C10.4393 22.8222 10.0101 23 9.5625 23H6.1875C5.73995 23 5.31072 22.8222 4.99426 22.5057C4.67779 22.1893 4.5 21.7601 4.5 21.3125V14.5625C4.5 14.1149 4.67779 13.6857 4.99426 13.3693C5.31072 13.0528 5.73995 12.875 6.1875 12.875H9.5625C10.0101 12.875 10.4393 13.0528 10.7557 13.3693C11.0722 13.6857 11.25 14.1149 11.25 14.5625V21.3125ZM20.8125 18.5H17.4375C16.6916 18.5 15.9762 18.7963 15.4488 19.3238C14.9213 19.8512 14.625 20.5666 14.625 21.3125C14.625 22.0584 14.9213 22.7738 15.4488 23.3012C15.9762 23.8287 16.6916 24.125 17.4375 24.125H20.8125C21.5584 24.125 22.2738 23.8287 22.8012 23.3012C23.3287 22.7738 23.625 22.0584 23.625 21.3125C23.625 20.5666 23.3287 19.8512 22.8012 19.3238C22.2738 18.7963 21.5584 18.5 20.8125 18.5ZM20.8125 23H17.4375C16.9899 23 16.5607 22.8222 16.2443 22.5057C15.9278 22.1893 15.75 21.7601 15.75 21.3125C15.75 20.8649 15.9278 20.4357 16.2443 20.1193C16.5607 19.8028 16.9899 19.625 17.4375 19.625H20.8125C21.2601 19.625 21.6893 19.8028 22.0057 20.1193C22.3222 20.4357 22.5 20.8649 22.5 21.3125C22.5 21.7601 22.3222 22.1893 22.0057 22.5057C21.6893 22.8222 21.2601 23 20.8125 23ZM20.8125 3.875H17.4375C16.6916 3.875 15.9762 4.17132 15.4488 4.69876C14.9213 5.22621 14.625 5.94158 14.625 6.6875V13.4375C14.625 14.1834 14.9213 14.8988 15.4488 15.4262C15.9762 15.9537 16.6916 16.25 17.4375 16.25H20.8125C21.5584 16.25 22.2738 15.9537 22.8012 15.4262C23.3287 14.8988 23.625 14.1834 23.625 13.4375V6.6875C23.625 5.94158 23.3287 5.22621 22.8012 4.69876C22.2738 4.17132 21.5584 3.875 20.8125 3.875ZM22.5 13.4375C22.5 13.8851 22.3222 14.3143 22.0057 14.6307C21.6893 14.9472 21.2601 15.125 20.8125 15.125H17.4375C16.9899 15.125 16.5607 14.9472 16.2443 14.6307C15.9278 14.3143 15.75 13.8851 15.75 13.4375V6.6875C15.75 6.23995 15.9278 5.81072 16.2443 5.49426C16.5607 5.17779 16.9899 5 17.4375 5H20.8125C21.2601 5 21.6893 5.17779 22.0057 5.49426C22.3222 5.81072 22.5 6.23995 22.5 6.6875V13.4375Z" fill="black"/>
</svg>
