<svg width="27" height="27" viewBox="0 0 27 27" fill="none" xmlns="http://www.w3.org/2000/svg">
<path d="M20.4188 10.2876L20.0813 20.5029C20.0525 21.3778 19.684 22.2071 19.0538 22.8147C18.4237 23.4223 17.5816 23.7604 16.7063 23.7573H10.2938C9.41898 23.7604 8.57736 23.4227 7.94733 22.8159C7.31729 22.209 6.94836 21.3806 6.91876 20.5063L6.58126 10.2876C6.57387 10.0639 6.65569 9.84633 6.8087 9.68287C6.96171 9.51942 7.17339 9.42344 7.39716 9.41606C7.62094 9.40867 7.83849 9.49048 8.00194 9.6435C8.1654 9.79651 8.26137 10.0082 8.26876 10.232L8.60626 20.4498C8.62306 20.886 8.80825 21.2987 9.12291 21.6012C9.43757 21.9038 9.85724 22.0726 10.2938 22.0723H16.7063C17.1433 22.0726 17.5635 21.9033 17.8782 21.6C18.193 21.2968 18.3778 20.8832 18.3938 20.4464L18.7313 10.232C18.7386 10.0082 18.8346 9.79651 18.9981 9.6435C19.1615 9.49048 19.3791 9.40867 19.6029 9.41606C19.8266 9.42344 20.0383 9.51942 20.1913 9.68287C20.3443 9.84633 20.4261 10.0639 20.4188 10.2876ZM21.535 6.88818C21.535 7.11196 21.4461 7.32657 21.2879 7.4848C21.1297 7.64304 20.9151 7.73193 20.6913 7.73193H6.30957C6.08579 7.73193 5.87118 7.64304 5.71295 7.4848C5.55471 7.32657 5.46582 7.11196 5.46582 6.88818C5.46582 6.6644 5.55471 6.44979 5.71295 6.29156C5.87118 6.13333 6.08579 6.04443 6.30957 6.04443H8.9252C9.19254 6.04515 9.45058 5.94638 9.64912 5.76734C9.84765 5.5883 9.97247 5.3418 9.99929 5.07581C10.0616 4.45184 10.3539 3.8734 10.8193 3.4532C11.2848 3.03299 11.89 2.80111 12.517 2.80274H14.483C15.11 2.80111 15.7152 3.03299 16.1807 3.4532C16.6461 3.8734 16.9385 4.45184 17.0007 5.07581C17.0275 5.3418 17.1524 5.5883 17.3509 5.76734C17.5494 5.94638 17.8075 6.04515 18.0748 6.04443H20.6904C20.9142 6.04443 21.1288 6.13333 21.2871 6.29156C21.4453 6.44979 21.5342 6.6644 21.5342 6.88818H21.535ZM11.464 6.04443H15.5377C15.4268 5.79109 15.3543 5.52264 15.3225 5.24793C15.3016 5.03995 15.2042 4.84714 15.0493 4.70684C14.8944 4.56655 14.6928 4.48876 14.4838 4.48856H12.5179C12.3089 4.48876 12.1074 4.56655 11.9524 4.70684C11.7975 4.84714 11.7001 5.03995 11.6792 5.24793C11.6472 5.52269 11.5752 5.79113 11.464 6.04443ZM12.3137 18.8281V11.6436C12.3137 11.4198 12.2248 11.2052 12.0666 11.0469C11.9083 10.8887 11.6937 10.7998 11.4699 10.7998C11.2462 10.7998 11.0316 10.8887 10.8733 11.0469C10.7151 11.2052 10.6262 11.4198 10.6262 11.6436V18.8315C10.6262 19.0552 10.7151 19.2698 10.8733 19.4281C11.0316 19.5863 11.2462 19.6752 11.4699 19.6752C11.6937 19.6752 11.9083 19.5863 12.0666 19.4281C12.2248 19.2698 12.3137 19.0552 12.3137 18.8315V18.8281ZM16.3755 18.8281V11.6436C16.3755 11.4198 16.2866 11.2052 16.1284 11.0469C15.9701 10.8887 15.7555 10.7998 15.5318 10.7998C15.308 10.7998 15.0934 10.8887 14.9351 11.0469C14.7769 11.2052 14.688 11.4198 14.688 11.6436V18.8315C14.688 19.0552 14.7769 19.2698 14.9351 19.4281C15.0934 19.5863 15.308 19.6752 15.5318 19.6752C15.7555 19.6752 15.9701 19.5863 16.1284 19.4281C16.2866 19.2698 16.3755 19.0552 16.3755 18.8315V18.8281Z" fill="black"/>
</svg>
