<svg width="27" height="27" viewBox="0 0 27 27" fill="none" xmlns="http://www.w3.org/2000/svg">
<path d="M5.625 20.2497H10.395C10.5431 20.2505 10.6898 20.2222 10.8269 20.1662C10.964 20.1102 11.0886 20.0277 11.1937 19.9234L18.9788 12.1272L22.1737 8.99969C22.2792 8.8951 22.3629 8.77068 22.42 8.63359C22.4771 8.49649 22.5065 8.34945 22.5065 8.20094C22.5065 8.05242 22.4771 7.90538 22.42 7.76829C22.3629 7.6312 22.2792 7.50677 22.1737 7.40219L17.4038 2.57594C17.2992 2.47049 17.1747 2.3868 17.0376 2.32968C16.9006 2.27257 16.7535 2.24316 16.605 2.24316C16.4565 2.24316 16.3094 2.27257 16.1724 2.32968C16.0353 2.3868 15.9108 2.47049 15.8063 2.57594L12.6337 5.75969L4.82625 13.5559C4.72198 13.6611 4.63949 13.7857 4.58351 13.9228C4.52752 14.0599 4.49914 14.2066 4.5 14.3547V19.1247C4.5 19.4231 4.61853 19.7092 4.8295 19.9202C5.04048 20.1312 5.32663 20.2497 5.625 20.2497ZM16.605 4.96094L19.7887 8.14469L18.1912 9.74219L15.0075 6.55844L16.605 4.96094ZM6.75 14.8159L13.4213 8.14469L16.605 11.3284L9.93375 17.9997H6.75V14.8159ZM23.625 22.4997H3.375C3.07663 22.4997 2.79048 22.6182 2.5795 22.8292C2.36853 23.0402 2.25 23.3263 2.25 23.6247C2.25 23.9231 2.36853 24.2092 2.5795 24.4202C2.79048 24.6312 3.07663 24.7497 3.375 24.7497H23.625C23.9234 24.7497 24.2095 24.6312 24.4205 24.4202C24.6315 24.2092 24.75 23.9231 24.75 23.6247C24.75 23.3263 24.6315 23.0402 24.4205 22.8292C24.2095 22.6182 23.9234 22.4997 23.625 22.4997Z" fill="black"/>
</svg>
