<svg width="27" height="28" viewBox="0 0 27 28" fill="none" xmlns="http://www.w3.org/2000/svg">
<path d="M23.6936 24.2832H3.30645C1.48184 24.2832 0 22.8014 0 20.9768V7.02324C0 5.19863 1.48184 3.7168 3.30645 3.7168H23.6936C25.5182 3.7168 27 5.19863 27 7.02324V20.9768C27 22.8014 25.5182 24.2832 23.6936 24.2832ZM3.30645 4.43398C1.87734 4.43398 0.717188 5.59414 0.717188 7.02324V20.9768C0.717188 22.4059 1.87734 23.566 3.30645 23.566H23.6936C25.1227 23.566 26.2828 22.4059 26.2828 20.9768V7.02324C26.2828 5.59414 25.1227 4.43398 23.6936 4.43398H3.30645Z" fill="#231F20"/>
<path d="M5.86924 11.3947C4.35049 11.3947 3.1165 10.2768 3.1165 8.90566C3.1165 7.53457 4.35049 6.4166 5.86924 6.4166C7.38799 6.4166 8.62197 7.53457 8.62197 8.90566C8.62197 10.2768 7.38799 11.3947 5.86924 11.3947ZM5.86924 7.13379C4.746 7.13379 3.83369 7.93008 3.83369 8.90566C3.83369 9.88125 4.746 10.6775 5.86924 10.6775C6.99248 10.6775 7.90478 9.88125 7.90478 8.90566C7.90478 7.93008 6.99248 7.13379 5.86924 7.13379ZM9.46045 18.9779H2.27803C2.07764 18.9779 1.91943 18.8145 1.91943 18.6193V15.6188C1.91943 13.5516 3.60166 11.8693 5.66885 11.8693H6.08018C8.14736 11.8693 9.82959 13.5516 9.82959 15.6188V18.6193C9.81904 18.8197 9.66084 18.9779 9.46045 18.9779ZM2.63662 18.2607H9.10186V15.6188C9.10186 13.9471 7.74131 12.5918 6.0749 12.5918H5.66357C3.99717 12.5865 2.63662 13.9471 2.63662 15.6188V18.2607ZM21.6315 14.6695H14.3331C12.5454 14.6695 11.0899 13.2141 11.0899 11.4264V9.63867C11.0899 7.85098 12.5454 6.39551 14.3331 6.39551H21.6315C23.4192 6.39551 24.8747 7.85098 24.8747 9.63867V11.4264C24.88 13.2141 23.4245 14.6695 21.6315 14.6695ZM14.3331 7.1127C12.9409 7.1127 11.8071 8.24648 11.8071 9.63867V11.4264C11.8071 12.8186 12.9409 13.9523 14.3331 13.9523H21.6315C23.0237 13.9523 24.1575 12.8186 24.1575 11.4264V9.63867C24.1575 8.24648 23.0237 7.1127 21.6315 7.1127H14.3331ZM24.5214 16.7525H12.8144C12.614 16.7525 12.4558 16.5891 12.4558 16.3939C12.4558 16.1988 12.6192 16.0354 12.8144 16.0354H24.5214C24.7218 16.0354 24.88 16.1988 24.88 16.3939C24.88 16.5891 24.7165 16.7525 24.5214 16.7525ZM24.5214 18.8092H12.8144C12.614 18.8092 12.4558 18.6457 12.4558 18.4506C12.4558 18.2555 12.6192 18.092 12.8144 18.092H24.5214C24.7218 18.092 24.88 18.2555 24.88 18.4506C24.88 18.6457 24.7165 18.8092 24.5214 18.8092ZM24.5214 20.8605H12.8144C12.614 20.8605 12.4558 20.6971 12.4558 20.502C12.4558 20.3016 12.6192 20.1434 12.8144 20.1434H24.5214C24.7218 20.1434 24.88 20.3068 24.88 20.502C24.88 20.7023 24.7165 20.8605 24.5214 20.8605ZM9.46045 20.8605H2.27803C2.07764 20.8605 1.91943 20.6971 1.91943 20.502C1.91943 20.3016 2.08291 20.1434 2.27803 20.1434H9.46572C9.66611 20.1434 9.82432 20.3068 9.82432 20.502C9.81904 20.7023 9.66084 20.8605 9.46045 20.8605Z" fill="#231F20"/>
</svg>
