<svg width="26" height="23" viewBox="0 0 26 23" fill="none" xmlns="http://www.w3.org/2000/svg">
<path d="M23.1575 3.77441H2.31543V22.7741H23.1575V3.77441Z" fill="#FED35B"/>
<path d="M23.1575 0.895508H2.31543V3.77425H23.1575V0.895508Z" fill="#D6B24E"/>
<path d="M0 6.07715V7.56806C0 8.97049 1.16641 10.1074 2.60528 10.1074C4.04412 10.1074 5.21053 8.97049 5.21053 7.56806V6.07715H0Z" fill="#DD584D"/>
<path d="M5.21094 6.07715V7.56806C5.21094 8.97049 6.24777 10.1074 7.52675 10.1074C8.80571 10.1074 9.84252 8.97049 9.84252 7.56806V6.07715H5.21094Z" fill="#EDEDED"/>
<path d="M9.8418 6.07715V7.56806C9.8418 8.97049 11.0082 10.1074 12.4471 10.1074C13.8859 10.1074 15.0523 8.97049 15.0523 7.56806V6.07715H9.8418Z" fill="#DD584D"/>
<path d="M15.0527 6.07715V7.56806C15.0527 8.97049 16.2191 10.1074 17.658 10.1074C19.0968 10.1074 20.2633 8.97049 20.2633 7.56806V6.07715H15.0527Z" fill="#EDEDED"/>
<path d="M20.2627 6.07715V7.56806C20.2627 8.97049 21.4291 10.1074 22.868 10.1074C24.3068 10.1074 25.4732 8.97049 25.4732 7.56806V6.07715H20.2627Z" fill="#DD584D"/>
<path d="M6.36842 3.77441H2.124L0 6.07741H5.09391L6.36842 3.77441Z" fill="#CD5248"/>
<path d="M10.4215 3.77441H6.41423L5.21094 6.07741H10.0205L10.4215 3.77441Z" fill="#DBD8DD"/>
<path d="M14.6179 3.77441H10.2762L9.8418 6.07741H15.0523L14.6179 3.77441Z" fill="#CD5248"/>
<path d="M18.9261 3.77441H14.4736L14.9192 6.07741H20.2631L18.9261 3.77441Z" fill="#DBD8DD"/>
<path d="M23.1566 3.77441H18.5264L19.9167 6.07741H25.4737L23.1566 3.77441Z" fill="#CD5248"/>
<path d="M23.1575 20.4707H2.31543V22.7737H23.1575V20.4707Z" fill="#BB9B45"/>
<path d="M16.2109 21.6221H8.68457V22.7736H16.2109V21.6221Z" fill="#32786A"/>
<path d="M15.0523 13.5615H9.8418V21.622H15.0523V13.5615Z" fill="#2D6D60"/>
<path d="M8.67872 16.4883H3.36719V19.4817H8.67872V16.4883Z" fill="#4288B9"/>
<path d="M8.86187 19.6639H3.18457V16.3066H8.86187V19.6639ZM3.55043 19.3001H8.49601V16.6705H3.55043V19.3001Z" fill="white"/>
<path d="M21.7568 16.4883H16.4453V19.4817H21.7568V16.4883Z" fill="#4288B9"/>
<path d="M21.94 19.6639H16.2627V16.3066H21.94V19.6639ZM16.6286 19.3001H21.5741V16.6705H16.6286V19.3001Z" fill="white"/>
</svg>
