<svg width="27" height="27" viewBox="0 0 27 27" fill="none" xmlns="http://www.w3.org/2000/svg">
<path d="M20.9936 12.2977C20.9936 12.2344 21.0041 12.1711 21.0041 12.1078C21.0041 8.68008 18.2725 5.90625 14.9027 5.90625C12.4717 5.90625 10.3834 7.35117 9.40254 9.43945C8.97539 9.22324 8.49551 9.09668 7.98926 9.09668C6.43359 9.09668 5.13633 10.2516 4.88848 11.7598C3.02168 12.4031 1.6875 14.1908 1.6875 16.2949C1.6875 18.9422 3.80215 21.0938 6.40723 21.0938H11.8125V16.875H9.2707L13.5 12.4611L17.7293 16.8697H15.1875V21.0885H21.0041C23.3877 21.0885 25.3125 19.1109 25.3125 16.6904C25.3125 14.2699 23.3771 12.3029 20.9936 12.2977Z" fill="black" fill-opacity="0.52"/>
</svg>
