<svg width="27" height="27" viewBox="0 0 27 27" fill="none" xmlns="http://www.w3.org/2000/svg">
<path d="M13.5002 9.34473C12.6783 9.34473 11.8749 9.58844 11.1915 10.045C10.5082 10.5017 9.97556 11.1507 9.66104 11.91C9.34653 12.6693 9.26424 13.5048 9.42457 14.3109C9.58491 15.117 9.98068 15.8574 10.5618 16.4386C11.143 17.0197 11.8834 17.4155 12.6895 17.5758C13.4956 17.7362 14.3311 17.6539 15.0904 17.3393C15.8497 17.0248 16.4987 16.4922 16.9553 15.8089C17.412 15.1255 17.6557 14.3221 17.6557 13.5002C17.6543 12.3985 17.2161 11.3423 16.4371 10.5633C15.6581 9.7843 14.6019 9.34607 13.5002 9.34473ZM13.5002 15.9682C13.0121 15.9682 12.5349 15.8234 12.1291 15.5522C11.7232 15.2811 11.4069 14.8956 11.2201 14.4446C11.0333 13.9937 10.9844 13.4975 11.0796 13.0187C11.1749 12.54 11.4099 12.1002 11.7551 11.7551C12.1002 11.4099 12.54 11.1749 13.0187 11.0796C13.4975 10.9844 13.9937 11.0333 14.4446 11.2201C14.8956 11.4069 15.2811 11.7232 15.5522 12.1291C15.8234 12.5349 15.9682 13.0121 15.9682 13.5002C15.9675 14.1545 15.7073 14.7819 15.2446 15.2446C14.7819 15.7073 14.1545 15.9675 13.5002 15.9682Z" fill="black"/>
<path d="M24.6787 13.0783C24.5006 12.7703 20.2431 5.53516 13.4998 5.53516C6.75659 5.53516 2.49902 12.7703 2.32099 13.0783C2.17012 13.3393 2.17012 13.661 2.32099 13.922C2.49902 14.23 6.75743 21.4652 13.4998 21.4652C20.2422 21.4652 24.5006 14.23 24.6787 13.922C24.8295 13.661 24.8295 13.3393 24.6787 13.0783ZM13.4998 19.7777C10.6752 19.7777 8.29391 18.1826 6.59547 16.5491C4.85654 14.8767 4.85351 12.1197 6.59199 10.4468C8.28798 8.81473 10.6681 7.22266 13.4998 7.22266C16.3199 7.22266 18.6979 8.81262 20.3957 10.4432C22.1398 12.1183 22.1407 14.8827 20.3966 16.5577C18.6987 18.1883 16.3204 19.7777 13.4998 19.7777Z" fill="black"/>
</svg>
